<svg width="223" height="88" viewBox="0 0 223 88" fill="none" xmlns="http://www.w3.org/2000/svg">
<g id="Group 48095411">
<g id="Digital">
<path d="M78.6483 40.1709H65.1776V2.1709H78.7596C82.5818 2.1709 85.8722 2.93164 88.6307 4.45313C91.3891 5.96224 93.5106 8.13314 94.9949 10.9658C96.4917 13.7985 97.2401 17.1878 97.2401 21.1338C97.2401 25.0921 96.4917 28.4938 94.9949 31.3389C93.5106 34.1839 91.3768 36.3672 88.5936 37.8887C85.8227 39.4102 82.5076 40.1709 78.6483 40.1709ZM73.2117 33.2871H78.3143C80.6893 33.2871 82.687 32.8665 84.3074 32.0254C85.9402 31.1719 87.1649 29.8545 87.9813 28.0732C88.81 26.2796 89.2244 23.9665 89.2244 21.1338C89.2244 18.3258 88.81 16.0313 87.9813 14.25C87.1649 12.4688 85.9464 11.1576 84.326 10.3164C82.7055 9.47526 80.7078 9.05469 78.3328 9.05469H73.2117V33.2871Z" fill="#152438"/>
<path d="M103.043 40.1709V11.6709H110.947V40.1709H103.043ZM107.014 7.99707C105.839 7.99707 104.83 7.60742 103.989 6.82812C103.161 6.03646 102.746 5.09017 102.746 3.98926C102.746 2.90072 103.161 1.9668 103.989 1.1875C104.83 0.395834 105.839 0 107.014 0C108.189 0 109.191 0.395834 110.02 1.1875C110.861 1.9668 111.281 2.90072 111.281 3.98926C111.281 5.09017 110.861 6.03646 110.02 6.82812C109.191 7.60742 108.189 7.99707 107.014 7.99707Z" fill="#152438"/>
<path d="M130.119 51.4522C127.558 51.4522 125.363 51.0996 123.532 50.3945C121.714 49.7018 120.266 48.7555 119.19 47.5557C118.114 46.3558 117.415 45.0075 117.094 43.5107L124.404 42.5273C124.627 43.0964 124.979 43.6283 125.462 44.1231C125.944 44.6178 126.581 45.0137 127.373 45.3105C128.177 45.6198 129.154 45.7744 130.305 45.7744C132.024 45.7744 133.44 45.3538 134.554 44.5127C135.679 43.6839 136.242 42.2923 136.242 40.3379V35.124H135.908C135.562 35.9157 135.042 36.6641 134.349 37.3691C133.657 38.0742 132.766 38.6494 131.678 39.0947C130.589 39.54 129.29 39.7627 127.781 39.7627C125.641 39.7627 123.693 39.2679 121.936 38.2783C120.192 37.2764 118.801 35.7487 117.762 33.6953C116.735 31.6296 116.221 29.0195 116.221 25.8652C116.221 22.6367 116.747 19.9401 117.799 17.7754C118.85 15.6107 120.248 13.9902 121.992 12.9141C123.749 11.8379 125.672 11.2998 127.763 11.2998C129.358 11.2998 130.694 11.5719 131.77 12.1162C132.846 12.6481 133.712 13.3161 134.368 14.1201C135.036 14.9118 135.549 15.6911 135.908 16.458H136.205V11.6709H144.054V40.4492C144.054 42.8737 143.46 44.9023 142.272 46.5352C141.085 48.168 139.44 49.3926 137.337 50.209C135.246 51.0378 132.84 51.4522 130.119 51.4522ZM130.286 33.8252C131.56 33.8252 132.636 33.5098 133.514 32.8789C134.405 32.2357 135.085 31.3203 135.555 30.1328C136.038 28.9329 136.279 27.498 136.279 25.8281C136.279 24.1582 136.044 22.7109 135.574 21.4863C135.104 20.2493 134.424 19.2907 133.533 18.6104C132.642 17.93 131.56 17.5898 130.286 17.5898C128.987 17.5898 127.892 17.9424 127.002 18.6475C126.111 19.3402 125.437 20.305 124.979 21.542C124.522 22.779 124.293 24.2077 124.293 25.8281C124.293 27.4733 124.522 28.8958 124.979 30.0957C125.449 31.2832 126.124 32.2048 127.002 32.8604C127.892 33.5036 128.987 33.8252 130.286 33.8252Z" fill="#152438"/>
<path d="M150.344 40.1709V11.6709H158.248V40.1709H150.344ZM154.314 7.99707C153.139 7.99707 152.131 7.60742 151.29 6.82812C150.461 6.03646 150.047 5.09017 150.047 3.98926C150.047 2.90072 150.461 1.9668 151.29 1.1875C152.131 0.395834 153.139 0 154.314 0C155.489 0 156.491 0.395834 157.32 1.1875C158.161 1.9668 158.582 2.90072 158.582 3.98926C158.582 5.09017 158.161 6.03646 157.32 6.82812C156.491 7.60742 155.489 7.99707 154.314 7.99707Z" fill="#152438"/>
<path d="M179.739 11.6709V17.6084H162.576V11.6709H179.739ZM166.472 4.84278H174.377V31.4131C174.377 32.1429 174.488 32.7119 174.711 33.1201C174.933 33.516 175.242 33.7943 175.638 33.9551C176.046 34.1159 176.517 34.1963 177.048 34.1963C177.419 34.1963 177.791 34.1654 178.162 34.1035C178.533 34.0293 178.817 33.9736 179.015 33.9365L180.258 39.8184C179.863 39.9421 179.306 40.0843 178.588 40.2451C177.871 40.4183 176.999 40.5234 175.972 40.5606C174.067 40.6348 172.397 40.3812 170.962 39.7998C169.54 39.2184 168.433 38.3154 167.641 37.0908C166.85 35.8662 166.46 34.32 166.472 32.4522V4.84278Z" fill="#152438"/>
<path d="M193.015 40.709C191.196 40.709 189.576 40.3936 188.153 39.7627C186.731 39.1195 185.605 38.1732 184.776 36.9238C183.96 35.6621 183.552 34.0911 183.552 32.2109C183.552 30.6276 183.843 29.2979 184.424 28.2217C185.005 27.1455 185.797 26.2796 186.799 25.624C187.801 24.9684 188.939 24.4736 190.213 24.1396C191.499 23.8057 192.848 23.5706 194.258 23.4346C195.915 23.2614 197.251 23.1006 198.266 22.9521C199.28 22.7913 200.016 22.5563 200.474 22.2471C200.931 21.9378 201.16 21.4801 201.16 20.874V20.7627C201.16 19.5876 200.789 18.6784 200.047 18.0352C199.317 17.3919 198.278 17.0703 196.93 17.0703C195.507 17.0703 194.375 17.3857 193.534 18.0166C192.693 18.6351 192.136 19.4144 191.864 20.3545L184.554 19.7607C184.925 18.029 185.655 16.5322 186.743 15.2705C187.832 13.9964 189.236 13.0192 190.955 12.3389C192.687 11.6462 194.691 11.2998 196.967 11.2998C198.55 11.2998 200.065 11.4854 201.513 11.8564C202.972 12.2275 204.265 12.8027 205.391 13.582C206.529 14.3613 207.426 15.3633 208.081 16.5879C208.737 17.8001 209.065 19.2536 209.065 20.9482V40.1709H201.568V36.2188H201.346C200.888 37.1094 200.276 37.8949 199.509 38.5752C198.742 39.2432 197.82 39.7689 196.744 40.1523C195.668 40.5234 194.425 40.709 193.015 40.709ZM195.278 35.2539C196.441 35.2539 197.468 35.0251 198.358 34.5674C199.249 34.0973 199.948 33.4665 200.455 32.6748C200.962 31.8831 201.216 30.9863 201.216 29.9844V26.96C200.968 27.1208 200.628 27.2692 200.195 27.4053C199.775 27.529 199.299 27.6465 198.767 27.7578C198.235 27.8568 197.703 27.9495 197.171 28.0361C196.639 28.1104 196.157 28.1784 195.724 28.2402C194.796 28.3763 193.986 28.5928 193.293 28.8896C192.6 29.1865 192.062 29.5885 191.679 30.0957C191.295 30.5905 191.104 31.209 191.104 31.9512C191.104 33.0273 191.493 33.8499 192.273 34.4189C193.064 34.9756 194.066 35.2539 195.278 35.2539Z" fill="#152438"/>
<path d="M223.101 2.1709V40.1709H215.197V2.1709H223.101Z" fill="#152438"/>
</g>
<g id="Pakistan">
<path d="M0 87.4174V47.647H15.5977C18.5963 47.647 21.1509 48.2231 23.2614 49.3753C25.372 50.5146 26.9807 52.1005 28.0875 54.133C29.2071 56.1526 29.7669 58.4829 29.7669 61.1239C29.7669 63.7649 29.2007 66.0952 28.0682 68.1148C26.9357 70.1344 25.2948 71.7073 23.1456 72.8337C21.0093 73.96 18.4225 74.5231 15.3854 74.5231H5.44376V67.7847H14.0341C15.6428 67.7847 16.9683 67.5063 18.0107 66.9497C19.066 66.38 19.8511 65.5968 20.3658 64.5999C20.8935 63.5901 21.1573 62.4315 21.1573 61.1239C21.1573 59.8034 20.8935 58.6512 20.3658 57.6673C19.8511 56.6705 19.066 55.9002 18.0107 55.3564C16.9554 54.7998 15.617 54.5214 13.9955 54.5214H8.35868V87.4174H0Z" fill="#152438"/>
<path d="M42.7007 87.9806C40.8089 87.9806 39.123 87.6505 37.643 86.9902C36.163 86.317 34.9919 85.3266 34.1296 84.0191C33.2803 82.6986 32.8556 81.0544 32.8556 79.0866C32.8556 77.4295 33.158 76.0378 33.7629 74.9115C34.3677 73.7852 35.1914 72.879 36.2338 72.1928C37.2762 71.5067 38.4602 70.9888 39.7857 70.6393C41.1242 70.2897 42.5269 70.0438 43.994 69.9014C45.7185 69.7201 47.1084 69.5518 48.1637 69.3965C49.219 69.2282 49.9847 68.9822 50.4609 68.6585C50.9371 68.3349 51.1752 67.8559 51.1752 67.2215V67.105C51.1752 65.8751 50.7891 64.9236 50.0169 64.2504C49.2576 63.5772 48.1766 63.2406 46.7738 63.2406C45.2939 63.2406 44.1163 63.5707 43.2412 64.231C42.3661 64.8783 41.7869 65.6939 41.5038 66.6778L33.898 66.0564C34.2841 64.2439 35.0434 62.6774 36.1759 61.3569C37.3084 60.0235 38.7691 59.0008 40.5579 58.2887C42.3596 57.5637 44.4445 57.2013 46.8124 57.2013C48.4597 57.2013 50.0362 57.3954 51.5419 57.7838C53.0605 58.1722 54.4054 58.7742 55.5765 59.5898C56.7605 60.4054 57.6935 61.454 58.3756 62.7357C59.0577 64.0044 59.3987 65.5256 59.3987 67.2992V87.4174H51.5999V83.2811H51.3682C50.892 84.2133 50.255 85.0353 49.4571 85.7474C48.6592 86.4465 47.7004 86.9967 46.5808 87.398C45.4612 87.7864 44.1678 87.9806 42.7007 87.9806ZM45.0558 82.2714C46.2655 82.2714 47.3337 82.0319 48.2602 81.5528C49.1868 81.0609 49.914 80.4006 50.4416 79.5721C50.9693 78.7435 51.2331 77.805 51.2331 76.7563V73.591C50.9757 73.7593 50.6218 73.9147 50.1714 74.0571C49.7338 74.1865 49.2383 74.3095 48.6849 74.426C48.1316 74.5296 47.5782 74.6267 47.0248 74.7173C46.4714 74.795 45.9695 74.8662 45.5191 74.9309C44.5539 75.0733 43.7109 75.2999 42.9902 75.6106C42.2695 75.9213 41.7097 76.342 41.3108 76.8728C40.9118 77.3907 40.7123 78.038 40.7123 78.8147C40.7123 79.9411 41.1177 80.802 41.9285 81.3975C42.7521 81.9801 43.7946 82.2714 45.0558 82.2714Z" fill="#152438"/>
<path d="M73.2301 78.8342L73.2494 68.911H74.4463L83.9439 57.5896H93.3836L80.6236 72.5812H78.6739L73.2301 78.8342ZM65.7787 87.4174V47.647H74.0023V87.4174H65.7787ZM84.3107 87.4174L75.5852 74.426L81.0676 68.5809L93.9434 87.4174H84.3107Z" fill="#152438"/>
<path d="M97.4181 87.4174V57.5896H105.642V87.4174H97.4181ZM101.549 53.7446C100.327 53.7446 99.2778 53.3368 98.4026 52.5212C97.5404 51.6927 97.1093 50.7023 97.1093 49.5501C97.1093 48.4109 97.5404 47.4334 98.4026 46.6178C99.2778 45.7893 100.327 45.375 101.549 45.375C102.772 45.375 103.814 45.7893 104.676 46.6178C105.552 47.4334 105.989 48.4109 105.989 49.5501C105.989 50.7023 105.552 51.6927 104.676 52.5212C103.814 53.3368 102.772 53.7446 101.549 53.7446Z" fill="#152438"/>
<path d="M136.9 66.0952L129.371 66.5613C129.243 65.914 128.966 65.3314 128.541 64.8136C128.116 64.2828 127.557 63.862 126.862 63.5513C126.18 63.2277 125.362 63.0658 124.41 63.0658C123.136 63.0658 122.061 63.3377 121.186 63.8814C120.311 64.4122 119.874 65.1243 119.874 66.0175C119.874 66.7296 120.157 67.3316 120.723 67.8235C121.289 68.3155 122.261 68.7103 123.638 69.0081L129.004 70.0956C131.887 70.6911 134.036 71.6491 135.452 72.9696C136.868 74.2901 137.575 76.0249 137.575 78.1739C137.575 80.1288 137.003 81.8441 135.857 83.32C134.725 84.7958 133.168 85.948 131.186 86.7766C129.217 87.5922 126.945 88 124.371 88C120.446 88 117.319 87.1779 114.99 85.5338C112.673 83.8767 111.315 81.6241 110.917 78.7759L119.005 78.3487C119.249 79.5527 119.841 80.4718 120.781 81.1062C121.72 81.7276 122.924 82.0383 124.391 82.0383C125.832 82.0383 126.99 81.76 127.866 81.2033C128.754 80.6337 129.204 79.9022 129.217 79.0089C129.204 78.2581 128.889 77.6431 128.271 77.1641C127.653 76.6722 126.701 76.2967 125.414 76.0378L120.279 75.0086C117.383 74.426 115.228 73.4162 113.812 71.9792C112.409 70.5422 111.708 68.7103 111.708 66.4836C111.708 64.5676 112.223 62.917 113.252 61.5317C114.295 60.1465 115.755 59.0784 117.634 58.3276C119.526 57.5767 121.74 57.2013 124.275 57.2013C128.02 57.2013 130.967 57.9974 133.116 59.5898C135.278 61.1822 136.539 63.3506 136.9 66.0952Z" fill="#152438"/>
<path d="M158.525 57.5896V63.8038H140.669V57.5896H158.525ZM144.723 50.4434H152.946V78.2516C152.946 79.0154 153.062 79.6109 153.294 80.0382C153.525 80.4524 153.847 80.7437 154.259 80.912C154.684 81.0803 155.173 81.1645 155.726 81.1645C156.112 81.1645 156.498 81.1321 156.884 81.0674C157.27 80.9897 157.566 80.9314 157.772 80.8926L159.066 87.0485C158.654 87.1779 158.075 87.3268 157.328 87.4951C156.582 87.6764 155.675 87.7864 154.607 87.8252C152.625 87.9029 150.887 87.6375 149.394 87.029C147.914 86.4206 146.763 85.4755 145.939 84.1938C145.115 82.9122 144.71 81.2939 144.723 79.3391V50.4434Z" fill="#152438"/>
<path d="M172.337 87.9806C170.446 87.9806 168.76 87.6505 167.28 86.9902C165.8 86.317 164.629 85.3266 163.766 84.0191C162.917 82.6986 162.492 81.0544 162.492 79.0866C162.492 77.4295 162.795 76.0378 163.4 74.9115C164.004 73.7852 164.828 72.879 165.87 72.1928C166.913 71.5067 168.097 70.9888 169.422 70.6393C170.761 70.2897 172.164 70.0438 173.631 69.9014C175.355 69.7201 176.745 69.5518 177.8 69.3965C178.856 69.2282 179.621 68.9822 180.098 68.6585C180.574 68.3349 180.812 67.8559 180.812 67.2215V67.105C180.812 65.8751 180.426 64.9236 179.654 64.2504C178.894 63.5772 177.813 63.2406 176.411 63.2406C174.931 63.2406 173.753 63.5707 172.878 64.231C172.003 64.8783 171.424 65.6939 171.14 66.6778L163.535 66.0564C163.921 64.2439 164.68 62.6774 165.813 61.3569C166.945 60.0235 168.406 59.0008 170.195 58.2887C171.996 57.5637 174.081 57.2013 176.449 57.2013C178.096 57.2013 179.673 57.3954 181.179 57.7838C182.697 58.1722 184.042 58.7742 185.213 59.5898C186.397 60.4054 187.33 61.454 188.012 62.7357C188.694 64.0044 189.035 65.5256 189.035 67.2992V87.4174H181.237V83.2811H181.005C180.529 84.2133 179.892 85.0353 179.094 85.7474C178.296 86.4465 177.337 86.9967 176.217 87.398C175.098 87.7864 173.804 87.9806 172.337 87.9806ZM174.692 82.2714C175.902 82.2714 176.97 82.0319 177.897 81.5528C178.824 81.0609 179.551 80.4006 180.078 79.5721C180.606 78.7435 180.87 77.805 180.87 76.7563V73.591C180.612 73.7593 180.258 73.9147 179.808 74.0571C179.37 74.1865 178.875 74.3095 178.322 74.426C177.768 74.5296 177.215 74.6267 176.661 74.7173C176.108 74.795 175.606 74.8662 175.156 74.9309C174.191 75.0733 173.348 75.2999 172.627 75.6106C171.906 75.9213 171.346 76.342 170.947 76.8728C170.548 77.3907 170.349 78.038 170.349 78.8147C170.349 79.9411 170.754 80.802 171.565 81.3975C172.389 81.9801 173.431 82.2714 174.692 82.2714Z" fill="#152438"/>
<path d="M203.639 70.1732V87.4174H195.415V57.5896H203.253V62.8522H203.6C204.257 61.1174 205.357 59.7452 206.901 58.7354C208.446 57.7126 210.318 57.2013 212.519 57.2013C214.578 57.2013 216.373 57.6544 217.905 58.5606C219.436 59.4668 220.627 60.7614 221.476 62.4444C222.325 64.1145 222.75 66.1082 222.75 68.4255V87.4174H214.526V69.9014C214.539 68.076 214.076 66.6519 213.137 65.6292C212.197 64.5935 210.904 64.0756 209.256 64.0756C208.15 64.0756 207.172 64.3151 206.322 64.7941C205.486 65.2731 204.829 65.9722 204.353 66.8914C203.89 67.7976 203.652 68.8916 203.639 70.1732Z" fill="#152438"/>
</g>
<g id="Group 48095410">
<g id="OUR">
<path d="M18.6602 13.0234C18.6602 15.1784 18.2566 17.0241 17.4493 18.5605C16.6485 20.0905 15.5547 21.2624 14.168 22.0762C12.7878 22.89 11.2221 23.2969 9.47076 23.2969C7.71946 23.2969 6.15045 22.89 4.76373 22.0762C3.38352 21.2559 2.28977 20.0807 1.48248 18.5508C0.681702 17.0143 0.281311 15.1719 0.281311 13.0234C0.281311 10.8685 0.681702 9.02604 1.48248 7.49609C2.28977 5.95964 3.38352 4.78451 4.76373 3.9707C6.15045 3.1569 7.71946 2.75 9.47076 2.75C11.2221 2.75 12.7878 3.1569 14.168 3.9707C15.5547 4.78451 16.6485 5.95964 17.4493 7.49609C18.2566 9.02604 18.6602 10.8685 18.6602 13.0234ZM15.0176 13.0234C15.0176 11.5065 14.78 10.2272 14.3047 9.18555C13.836 8.13737 13.185 7.34636 12.3516 6.8125C11.5183 6.27214 10.558 6.00195 9.47076 6.00195C8.38352 6.00195 7.42324 6.27214 6.58991 6.8125C5.75657 7.34636 5.10227 8.13737 4.62701 9.18555C4.15826 10.2272 3.92389 11.5065 3.92389 13.0234C3.92389 14.5404 4.15826 15.8229 4.62701 16.8711C5.10227 17.9128 5.75657 18.7038 6.58991 19.2441C7.42324 19.778 8.38352 20.0449 9.47076 20.0449C10.558 20.0449 11.5183 19.778 12.3516 19.2441C13.185 18.7038 13.836 17.9128 14.3047 16.8711C14.78 15.8229 15.0176 14.5404 15.0176 13.0234Z" fill="#152438"/>
<path d="M34.6929 3.02344H38.316V16.0898C38.316 17.5221 37.9774 18.7819 37.3004 19.8691C36.6298 20.9564 35.6858 21.806 34.4683 22.418C33.2509 23.0234 31.8284 23.3262 30.2007 23.3262C28.5666 23.3262 27.1408 23.0234 25.9234 22.418C24.706 21.806 23.7619 20.9564 23.0914 19.8691C22.4208 18.7819 22.0855 17.5221 22.0855 16.0898V3.02344H25.7086V15.7871C25.7086 16.6204 25.8908 17.3626 26.2554 18.0137C26.6265 18.6647 27.1474 19.1758 27.8179 19.5469C28.4885 19.9115 29.2828 20.0938 30.2007 20.0938C31.1187 20.0938 31.913 19.9115 32.5836 19.5469C33.2606 19.1758 33.7815 18.6647 34.1461 18.0137C34.5106 17.3626 34.6929 16.6204 34.6929 15.7871V3.02344Z" fill="#152438"/>
<path d="M42.254 23.0234V3.02344H49.754C51.2904 3.02344 52.5795 3.29036 53.6212 3.82422C54.6693 4.35807 55.4603 5.10677 55.9942 6.07031C56.5346 7.02734 56.8048 8.14388 56.8048 9.41992C56.8048 10.7025 56.5313 11.8158 55.9844 12.7598C55.4441 13.6973 54.6465 14.4232 53.5919 14.9375C52.5372 15.4453 51.2416 15.6992 49.7051 15.6992H44.3633V12.6914H49.2169C50.1153 12.6914 50.851 12.5677 51.4239 12.3203C51.9968 12.0664 52.42 11.6986 52.6934 11.2168C52.9734 10.7285 53.1133 10.1296 53.1133 9.41992C53.1133 8.71029 52.9734 8.10482 52.6934 7.60352C52.4135 7.0957 51.987 6.71159 51.4141 6.45117C50.8412 6.18425 50.1023 6.05078 49.1973 6.05078H45.877V23.0234H42.254ZM52.586 13.9609L57.5372 23.0234H53.4942L48.6309 13.9609H52.586Z" fill="#152438"/>
</g>
<g id="Mission">
<path d="M0 26.7051H2.66016L6.22266 35.4004H6.36328L9.92578 26.7051H12.5859V38.7051H10.5V30.4609H10.3887L7.07227 38.6699H5.51367L2.19727 30.4434H2.08594V38.7051H0V26.7051Z" fill="#152438"/>
<path d="M14.8594 38.7051V29.7051H16.9805V38.7051H14.8594ZM15.9258 28.4277C15.5898 28.4277 15.3008 28.3164 15.0586 28.0937C14.8164 27.8672 14.6953 27.5957 14.6953 27.2793C14.6953 26.959 14.8164 26.6875 15.0586 26.4648C15.3008 26.2383 15.5898 26.125 15.9258 26.125C16.2656 26.125 16.5547 26.2383 16.793 26.4648C17.0352 26.6875 17.1563 26.959 17.1563 27.2793C17.1563 27.5957 17.0352 27.8672 16.793 28.0937C16.5547 28.3164 16.2656 28.4277 15.9258 28.4277Z" fill="#152438"/>
<path d="M26.2749 32.084L24.3413 32.2949C24.2866 32.0996 24.1909 31.916 24.0542 31.7441C23.9214 31.5723 23.7417 31.4336 23.5151 31.3281C23.2886 31.2227 23.0112 31.1699 22.6831 31.1699C22.2417 31.1699 21.8706 31.2656 21.5698 31.457C21.273 31.6484 21.1265 31.8965 21.1304 32.2012C21.1265 32.4629 21.2222 32.6758 21.4175 32.8398C21.6167 33.0039 21.9448 33.1387 22.4019 33.2441L23.937 33.5723C24.7886 33.7559 25.4214 34.0469 25.8354 34.4453C26.2534 34.8438 26.4644 35.3652 26.4683 36.0098C26.4644 36.5762 26.2983 37.0762 25.9702 37.5098C25.646 37.9395 25.1948 38.2754 24.6167 38.5176C24.0386 38.7598 23.3745 38.8809 22.6245 38.8809C21.5229 38.8809 20.6362 38.6504 19.9644 38.1895C19.2925 37.7246 18.8921 37.0781 18.7632 36.25L20.8315 36.0508C20.9253 36.457 21.1245 36.7637 21.4292 36.9707C21.7339 37.1777 22.1304 37.2813 22.6187 37.2813C23.1226 37.2813 23.5269 37.1777 23.8315 36.9707C24.1401 36.7637 24.2944 36.5078 24.2944 36.2031C24.2944 35.9453 24.1948 35.7324 23.9956 35.5645C23.8003 35.3965 23.4956 35.2676 23.0815 35.1777L21.5464 34.8555C20.6831 34.6758 20.0444 34.373 19.6304 33.9473C19.2163 33.5176 19.0112 32.9746 19.0151 32.3184C19.0112 31.7637 19.1616 31.2832 19.4663 30.877C19.7749 30.4668 20.2026 30.1504 20.7495 29.9277C21.3003 29.7012 21.9351 29.5879 22.6538 29.5879C23.7085 29.5879 24.5386 29.8125 25.144 30.2617C25.7534 30.7109 26.1304 31.3184 26.2749 32.084Z" fill="#152438"/>
<path d="M35.3306 32.084L33.397 32.2949C33.3423 32.0996 33.2466 31.916 33.1099 31.7441C32.9771 31.5723 32.7974 31.4336 32.5708 31.3281C32.3442 31.2227 32.0669 31.1699 31.7388 31.1699C31.2974 31.1699 30.9263 31.2656 30.6255 31.457C30.3286 31.6484 30.1821 31.8965 30.186 32.2012C30.1821 32.4629 30.2778 32.6758 30.4731 32.8398C30.6724 33.0039 31.0005 33.1387 31.4575 33.2441L32.9927 33.5723C33.8442 33.7559 34.4771 34.0469 34.8911 34.4453C35.3091 34.8438 35.52 35.3652 35.5239 36.0098C35.52 36.5762 35.354 37.0762 35.0259 37.5098C34.7017 37.9395 34.2505 38.2754 33.6724 38.5176C33.0942 38.7598 32.4302 38.8809 31.6802 38.8809C30.5786 38.8809 29.6919 38.6504 29.02 38.1895C28.3481 37.7246 27.9478 37.0781 27.8188 36.25L29.8872 36.0508C29.981 36.457 30.1802 36.7637 30.4849 36.9707C30.7895 37.1777 31.186 37.2813 31.6743 37.2813C32.1782 37.2813 32.5825 37.1777 32.8872 36.9707C33.1958 36.7637 33.3501 36.5078 33.3501 36.2031C33.3501 35.9453 33.2505 35.7324 33.0513 35.5645C32.856 35.3965 32.5513 35.2676 32.1372 35.1777L30.6021 34.8555C29.7388 34.6758 29.1001 34.373 28.686 33.9473C28.272 33.5176 28.0669 32.9746 28.0708 32.3184C28.0669 31.7637 28.2173 31.2832 28.522 30.877C28.8306 30.4668 29.2583 30.1504 29.8052 29.9277C30.356 29.7012 30.9907 29.5879 31.7095 29.5879C32.7642 29.5879 33.5942 29.8125 34.1997 30.2617C34.8091 30.7109 35.186 31.3184 35.3306 32.084Z" fill="#152438"/>
<path d="M37.2729 38.7051V29.7051H39.394V38.7051H37.2729ZM38.3394 28.4277C38.0034 28.4277 37.7144 28.3164 37.4722 28.0937C37.23 27.8672 37.1089 27.5957 37.1089 27.2793C37.1089 26.959 37.23 26.6875 37.4722 26.4648C37.7144 26.2383 38.0034 26.125 38.3394 26.125C38.6792 26.125 38.9683 26.2383 39.2065 26.4648C39.4487 26.6875 39.5698 26.959 39.5698 27.2793C39.5698 27.5957 39.4487 27.8672 39.2065 28.0937C38.9683 28.3164 38.6792 28.4277 38.3394 28.4277Z" fill="#152438"/>
<path d="M45.501 38.8809C44.6221 38.8809 43.8603 38.6875 43.2158 38.3008C42.5713 37.9141 42.0713 37.373 41.7158 36.6777C41.3643 35.9824 41.1885 35.1699 41.1885 34.2402C41.1885 33.3105 41.3643 32.4961 41.7158 31.7969C42.0713 31.0977 42.5713 30.5547 43.2158 30.168C43.8603 29.7813 44.6221 29.5879 45.501 29.5879C46.3799 29.5879 47.1416 29.7813 47.7861 30.168C48.4307 30.5547 48.9287 31.0977 49.2803 31.7969C49.6357 32.4961 49.8135 33.3105 49.8135 34.2402C49.8135 35.1699 49.6357 35.9824 49.2803 36.6777C48.9287 37.373 48.4307 37.9141 47.7861 38.3008C47.1416 38.6875 46.3799 38.8809 45.501 38.8809ZM45.5127 37.1816C45.9893 37.1816 46.3877 37.0508 46.708 36.7891C47.0283 36.5234 47.2666 36.168 47.4229 35.7227C47.583 35.2773 47.6631 34.7812 47.6631 34.2344C47.6631 33.6836 47.583 33.1855 47.4229 32.7402C47.2666 32.291 47.0283 31.9336 46.708 31.668C46.3877 31.4023 45.9893 31.2695 45.5127 31.2695C45.0244 31.2695 44.6182 31.4023 44.2939 31.668C43.9736 31.9336 43.7334 32.291 43.5732 32.7402C43.417 33.1855 43.3389 33.6836 43.3389 34.2344C43.3389 34.7812 43.417 35.2773 43.5732 35.7227C43.7334 36.168 43.9736 36.5234 44.2939 36.7891C44.6182 37.0508 45.0244 37.1816 45.5127 37.1816Z" fill="#152438"/>
<path d="M53.7349 33.4316V38.7051H51.6138V29.7051H53.6411V31.2344H53.7466C53.9536 30.7305 54.2837 30.3301 54.7368 30.0332C55.1938 29.7363 55.7583 29.5879 56.4302 29.5879C57.0513 29.5879 57.5923 29.7207 58.0532 29.9863C58.5181 30.252 58.8774 30.6367 59.1314 31.1406C59.3892 31.6445 59.5161 32.2559 59.5122 32.9746V38.7051H57.3911V33.3027C57.3911 32.7012 57.2349 32.2305 56.9224 31.8906C56.6138 31.5508 56.186 31.3809 55.6392 31.3809C55.2681 31.3809 54.938 31.4629 54.6489 31.627C54.3638 31.7871 54.1392 32.0195 53.9751 32.3242C53.8149 32.6289 53.7349 32.998 53.7349 33.4316Z" fill="#152438"/>
</g>
</g>
</g>
</svg>
