<svg width="15" height="14" viewBox="0 0 15 14" fill="none" xmlns="http://www.w3.org/2000/svg">
<path d="M12.922 3.97443L10.2578 3.58413L9.06989 1.17443C8.75596 0.546554 8.13656 0.15625 7.43232 0.15625C6.72808 0.15625 6.1002 0.546554 5.79474 1.17443L4.60687 3.58413L1.94262 3.97443C1.24687 4.07625 0.686865 4.5514 0.466259 5.2217C0.245652 5.89201 0.423835 6.60474 0.924441 7.09686L2.8505 8.97201L2.39232 11.6193C2.27353 12.3066 2.55353 12.9938 3.12202 13.4096C3.6905 13.8253 4.42868 13.8763 5.04808 13.5453L7.43232 12.2896L9.81656 13.5453C10.0881 13.6896 10.3766 13.7575 10.665 13.7575C11.0384 13.7575 11.4202 13.6387 11.7341 13.4096C12.3026 12.9938 12.5826 12.315 12.4638 11.6193L12.0057 8.97201L13.9317 7.09686C14.4323 6.60474 14.6105 5.89201 14.3899 5.2217C14.1693 4.5514 13.6178 4.07625 12.922 3.97443ZM12.8287 5.9514L10.6057 8.12352C10.419 8.30171 10.3341 8.56473 10.3766 8.82776L10.9026 11.8908C10.9196 12.0096 10.8602 12.0859 10.8093 12.1284C10.7669 12.1623 10.6735 12.2047 10.5547 12.1453L7.80565 10.7029C7.68687 10.6435 7.55959 10.6096 7.44081 10.6096C7.31353 10.6096 7.18626 10.6435 7.07596 10.7029L4.32687 12.1453C4.20808 12.2047 4.11474 12.1623 4.07232 12.1284C4.01293 12.0859 3.95353 12.0181 3.97899 11.8908L4.50505 8.82776C4.54747 8.57322 4.46262 8.31019 4.27596 8.12352L2.05293 5.95989C1.95959 5.86655 1.97656 5.76474 1.99353 5.71383C2.01899 5.64595 2.0699 5.56959 2.18868 5.55262L5.2602 5.10292C5.51474 5.06898 5.74383 4.89928 5.85414 4.67019L7.22868 1.88716C7.33899 1.66655 7.55111 1.66655 7.66141 1.88716L9.03596 4.67019C9.15475 4.90777 9.37535 5.06898 9.62989 5.10292L12.7014 5.55262C12.8287 5.56959 12.8796 5.65443 12.8966 5.71383C12.9135 5.75625 12.9305 5.85807 12.8287 5.9514Z" fill="#F9FAFB"/>
</svg>
