<svg width="27" height="36" viewBox="0 0 27 36" fill="none" xmlns="http://www.w3.org/2000/svg">
<path d="M22.2735 22.7693L22.9269 20.7499C23.0117 20.5038 23.1645 20.2917 23.3681 20.139L25.0905 18.8832C26.0663 18.1705 26.4735 16.9317 26.1087 15.7778C26.1087 15.7778 26.1087 15.7778 26.1087 15.7693L25.4469 13.7499C25.3705 13.5038 25.3705 13.2408 25.4469 13.0032L26.1172 10.9584C26.482 9.81294 26.0748 8.56566 25.099 7.85294L23.3766 6.60566C23.1729 6.45294 23.0202 6.24082 22.9354 6.00324L22.282 3.97536C21.9172 2.82991 20.8566 2.05778 19.6432 2.05778H17.4966C17.2505 2.05778 17.0045 1.98142 16.7923 1.82869L15.0699 0.58142C14.0941 -0.131307 12.779 -0.131307 11.8032 0.58142L10.0808 1.82869C9.86869 1.98142 9.63112 2.05778 9.37657 2.05778H7.2299C6.01657 2.05778 4.95596 2.82991 4.59112 3.97536L3.92081 6.01172C3.84445 6.2493 3.70021 6.45294 3.48809 6.60566L1.75718 7.86142C0.789903 8.57415 0.38263 9.82142 0.755963 10.9669L1.41778 13.0032C1.49415 13.2408 1.49415 13.5038 1.41778 13.7414L0.747478 15.7778C0.38263 16.9232 0.789903 18.162 1.75718 18.8748L3.48809 20.139C3.69172 20.2832 3.84445 20.4954 3.92081 20.7329L4.58263 22.7523C4.86263 23.6432 5.55839 24.2966 6.40687 24.5596V34.0287C6.40687 34.7584 6.82263 35.3948 7.49293 35.6917C8.16324 35.9887 8.9099 35.8699 9.45293 35.3778L13.2626 31.9414C13.356 31.8566 13.4917 31.8566 13.5851 31.9414L17.3948 35.3778C17.7426 35.6917 18.1669 35.8529 18.6081 35.8529C18.8626 35.8529 19.1172 35.802 19.3548 35.6917C20.0251 35.3948 20.4408 34.7584 20.4408 34.0287V24.5766C21.3063 24.3135 21.9935 23.6517 22.2735 22.7693ZM18.7184 34.2578C18.6505 34.2832 18.5572 34.3002 18.4638 34.2154L14.6541 30.779C13.9584 30.1511 12.9063 30.1511 12.2105 30.779L8.40081 34.2154C8.30748 34.3002 8.20566 34.2832 8.14627 34.2578C8.07839 34.2323 8.00203 34.1645 8.00203 34.0372V24.6954H9.36808C9.62263 24.6954 9.86869 24.7717 10.0638 24.916L11.7948 26.1802C12.2869 26.5366 12.8554 26.7148 13.4323 26.7148C14.0093 26.7148 14.5778 26.5366 15.0699 26.1802L16.7923 24.9244C16.996 24.7802 17.2335 24.7038 17.4966 24.7038H18.8626V34.0457C18.8626 34.1644 18.7863 34.2323 18.7184 34.2578ZM20.7632 22.2857C20.6105 22.7693 20.1438 23.1087 19.6348 23.1087H17.4966C16.9026 23.1087 16.3426 23.2869 15.8675 23.6348L14.1366 24.8905C13.7123 25.196 13.1523 25.196 12.7281 24.8905L10.9972 23.6263C10.522 23.2869 9.96202 23.1087 9.36808 23.1087H7.2299C6.72081 23.1087 6.25415 22.7693 6.09293 22.2772L5.43112 20.2578C5.25293 19.7063 4.89657 19.2057 4.42142 18.8663L2.69899 17.6105C2.28324 17.3051 2.10505 16.762 2.25778 16.2784L2.92808 14.242C3.10627 13.682 3.10627 13.0881 2.92808 12.5281L2.26627 10.4917C2.10505 9.9996 2.28324 9.45657 2.69899 9.1596L4.42142 7.91233C4.90505 7.56445 5.26142 7.08081 5.43112 6.52081L6.10142 4.48445C6.25415 4.00081 6.72081 3.66142 7.2299 3.66142H9.36808C9.95354 3.66142 10.5135 3.47475 10.9972 3.12687L12.7281 1.87112C13.1523 1.56566 13.7123 1.56566 14.1366 1.87112L15.8675 3.12687C16.3511 3.47475 16.9111 3.65294 17.4966 3.65294H19.6348C20.1438 3.65294 20.6105 3.99233 20.7632 4.47597L21.4251 6.51233C21.6117 7.07233 21.9596 7.55597 22.4348 7.90385L24.1572 9.1596C24.5814 9.46506 24.7596 9.9996 24.5984 10.4917L23.9281 12.5366C23.7499 13.0881 23.7499 13.682 23.9281 14.2505L24.5899 16.2784C24.7426 16.7705 24.5729 17.3051 24.1487 17.6105L22.4178 18.8748C21.9596 19.2141 21.6032 19.6978 21.4081 20.2578L20.7632 22.2857Z" fill="#F9FAFB"/>
</svg>
