<svg width="54" height="46" viewBox="0 0 54 46" fill="none" xmlns="http://www.w3.org/2000/svg">
<path d="M52.9468 6.54345C51.7589 2.7083 48.2547 0.128906 44.2328 0.128906H9.75891C4.72739 0.128906 0.637695 4.2186 0.637695 9.25012V36.6392C0.637695 41.6707 4.72739 45.7604 9.75891 45.7604H18.0401C18.4813 45.7604 18.8292 45.4041 18.8292 44.9713C18.8292 44.5386 18.4728 44.1822 18.0401 44.1822H9.75891C5.60133 44.1822 2.22436 40.8053 2.22436 36.6477V9.25012C2.22436 5.09254 5.60133 1.71557 9.75891 1.71557H21.7735L26.6353 9.82709C26.6862 9.92042 26.7456 10.0053 26.805 10.0731C27.2207 10.5822 27.8231 10.8792 28.4765 10.8792H51.7759V36.6392C51.7759 40.7968 48.3904 44.1738 44.2328 44.1738H36.8256C36.3844 44.1738 36.0365 44.5301 36.0365 44.9628C36.0365 45.3956 36.3928 45.7519 36.8256 45.7519H44.2328C49.2644 45.7519 53.3625 41.6622 53.3625 36.6307V9.25012C53.3625 8.31679 53.2183 7.40891 52.9468 6.54345ZM28.4765 9.29254C28.3068 9.29254 28.1456 9.21618 28.0013 9.02103L23.6231 1.71557H44.2328C47.508 1.71557 50.4692 3.89618 51.4365 7.0186C51.6656 7.73133 51.7759 8.48648 51.7759 9.2586V9.30103H28.4765V9.29254Z" fill="#F9FAFB"/>
</svg>
